<svg width="650" height="650" viewBox="0 0 650 650" fill="none" xmlns="http://www.w3.org/2000/svg">
<path d="M530.252 287.602L375.643 376.936C354.464 389.174 347.207 416.277 359.435 437.472C371.663 458.668 398.744 465.93 419.923 453.693L574.533 364.359C595.712 352.121 602.968 325.018 590.741 303.823C578.513 282.627 551.431 275.365 530.252 287.602Z" fill="#FCBC05"/>
<path d="M575.939 286.899L421.329 197.565C400.15 185.327 373.069 192.59 360.841 213.785C348.613 234.981 355.87 262.084 377.049 274.321L531.658 363.655C552.837 375.893 579.919 368.63 592.147 347.435C604.374 326.239 597.118 299.136 575.939 286.899Z" fill="#0D9D58"/>
<path d="M74.7538 285.492L229.363 196.158C250.542 183.92 277.624 191.183 289.852 212.378C302.079 233.574 294.823 260.677 273.644 272.914L119.034 362.248C97.8553 374.486 70.7738 367.224 58.5461 346.028C46.3183 324.832 53.5748 297.729 74.7538 285.492Z" fill="#EA4334"/>
<path d="M117.628 286.195L272.238 375.53C293.417 387.767 300.674 414.87 288.446 436.066C276.218 457.261 249.137 464.523 227.958 452.286L73.348 362.952C52.169 350.714 44.9125 323.612 57.1402 302.416C69.3679 281.22 96.4495 273.958 117.628 286.195Z" fill="#4285F4"/>
</svg>
